<?xml version="1.0" encoding="UTF-8" standalone="no"?><!DOCTYPE svg PUBLIC "-//W3C//DTD SVG 1.1//EN" "http://www.w3.org/Graphics/SVG/1.1/DTD/svg11.dtd"><svg width="20.32mm" height="128.5mm" viewBox="0 0 240 1518" version="1.1" xmlns="http://www.w3.org/2000/svg" xmlns:xlink="http://www.w3.org/1999/xlink" xml:space="preserve" xmlns:serif="http://www.serif.com/" style="fill-rule:evenodd;clip-rule:evenodd;stroke-linecap:round;stroke-linejoin:round;stroke-miterlimit:1.5;"><rect id="Artboard1" x="0" y="0" width="240" height="1517.717" style="fill:none;"/><clipPath id="_clip1"><rect id="Artboard11" serif:id="Artboard1" x="0" y="0" width="240" height="1517.717"/></clipPath><g clip-path="url(#_clip1)"><rect x="0" y="0" width="240" height="1517.717" style="fill:#00f;"/><rect x="19.606" y="182.37" width="200.787" height="58.914" style="fill:none;stroke:#fff;stroke-width:1.67px;"/><rect x="19.606" y="313.486" width="200.787" height="58.697" style="fill:none;stroke:#fff;stroke-width:1.67px;"/><g transform="matrix(1,0,0,1,-60.267594,-41.932223)"><g><g transform="matrix(33.333333,0,0,33.333333,78.455419,207.531102)"><path d="M0.204,0.061l0.296,-0.772l-0.081,0l-0.297,0.772l0.081,0Z" style="fill:#fff;fill-rule:nonzero;"/></g><g transform="matrix(33.333333,0,0,33.333333,98.458675,207.531102)"><path d="M0.084,0.203l0.09,0l0,-0.254c0.007,0.007 0.014,0.014 0.021,0.02c0.007,0.006 0.015,0.011 0.024,0.016c0.014,0.008 0.03,0.014 0.047,0.018c0.017,0.004 0.036,0.006 0.056,0.006c0.033,0 0.063,-0.007 0.089,-0.021c0.026,-0.014 0.048,-0.033 0.065,-0.057c0.018,-0.024 0.031,-0.052 0.04,-0.085c0.009,-0.033 0.014,-0.068 0.014,-0.106l0,-0.01c0,-0.039 -0.005,-0.076 -0.014,-0.109c-0.009,-0.033 -0.022,-0.061 -0.04,-0.085c-0.018,-0.024 -0.039,-0.042 -0.065,-0.056c-0.026,-0.013 -0.056,-0.02 -0.09,-0.02c-0.019,0 -0.037,0.002 -0.054,0.006c-0.017,0.004 -0.032,0.01 -0.046,0.018c-0.01,0.005 -0.019,0.011 -0.027,0.019c-0.008,0.007 -0.016,0.016 -0.023,0.025l-0.004,-0.058l-0.083,0l0,0.731Zm0.356,-0.472l0,0.01c0,0.026 -0.003,0.05 -0.009,0.074c-0.006,0.023 -0.014,0.044 -0.026,0.062c-0.012,0.018 -0.027,0.032 -0.045,0.043c-0.018,0.011 -0.04,0.016 -0.065,0.016c-0.016,0 -0.03,-0.002 -0.043,-0.006c-0.013,-0.004 -0.024,-0.009 -0.035,-0.016c-0.009,-0.006 -0.017,-0.013 -0.024,-0.021c-0.007,-0.008 -0.014,-0.018 -0.019,-0.027l0,-0.254c0.006,-0.011 0.013,-0.021 0.021,-0.03c0.008,-0.009 0.017,-0.017 0.028,-0.023c0.009,-0.006 0.02,-0.011 0.032,-0.014c0.012,-0.003 0.025,-0.005 0.039,-0.005c0.025,0 0.047,0.005 0.065,0.016c0.018,0.01 0.033,0.024 0.045,0.042c0.012,0.018 0.02,0.038 0.026,0.062c0.006,0.023 0.009,0.048 0.009,0.073Z" style="fill:#fff;fill-rule:nonzero;"/></g><g transform="matrix(33.333333,0,0,33.333333,118.46193,207.531102)"><path d="M0.06,-0.269l0,0.011c0,0.038 0.006,0.073 0.017,0.106c0.011,0.033 0.027,0.061 0.048,0.085c0.021,0.024 0.046,0.043 0.075,0.057c0.03,0.014 0.063,0.021 0.101,0.021c0.037,0 0.07,-0.007 0.1,-0.021c0.03,-0.014 0.055,-0.033 0.076,-0.057c0.021,-0.024 0.036,-0.052 0.047,-0.085c0.011,-0.033 0.017,-0.068 0.017,-0.106l0,-0.011c0,-0.038 -0.006,-0.073 -0.017,-0.106c-0.011,-0.033 -0.027,-0.061 -0.047,-0.085c-0.021,-0.024 -0.046,-0.043 -0.076,-0.057c-0.03,-0.014 -0.063,-0.021 -0.101,-0.021c-0.037,0 -0.07,0.007 -0.1,0.021c-0.03,0.014 -0.055,0.033 -0.075,0.057c-0.021,0.024 -0.037,0.052 -0.048,0.085c-0.011,0.033 -0.017,0.068 -0.017,0.106Zm0.09,0.011l0,-0.011c0,-0.026 0.003,-0.05 0.009,-0.074c0.006,-0.024 0.016,-0.044 0.028,-0.062c0.012,-0.018 0.028,-0.032 0.046,-0.043c0.019,-0.011 0.04,-0.016 0.065,-0.016c0.025,0 0.047,0.005 0.066,0.016c0.019,0.011 0.034,0.025 0.047,0.043c0.012,0.018 0.022,0.039 0.028,0.062c0.006,0.024 0.01,0.048 0.01,0.074l0,0.011c0,0.026 -0.003,0.051 -0.009,0.074c-0.006,0.024 -0.015,0.044 -0.028,0.062c-0.013,0.018 -0.028,0.032 -0.047,0.042c-0.019,0.01 -0.04,0.016 -0.065,0.016c-0.025,0 -0.047,-0.005 -0.066,-0.016c-0.019,-0.01 -0.035,-0.025 -0.047,-0.042c-0.013,-0.018 -0.022,-0.039 -0.028,-0.062c-0.006,-0.024 -0.009,-0.048 -0.009,-0.074Z" style="fill:#fff;fill-rule:nonzero;"/></g><g transform="matrix(33.333333,0,0,33.333333,138.465185,207.531102)"><path d="M0.431,-0.538c-0.038,0 -0.073,0.008 -0.103,0.025c-0.03,0.017 -0.056,0.04 -0.077,0.069l-0,-0.013l-0.004,-0.071l-0.086,0l0,0.528l0.091,-0l0,-0.339c0.006,-0.016 0.013,-0.031 0.022,-0.044c0.009,-0.013 0.019,-0.024 0.031,-0.033c0.013,-0.01 0.029,-0.018 0.047,-0.024c0.018,-0.005 0.038,-0.008 0.06,-0.008c0.017,0 0.034,0.001 0.05,0.003c0.016,0.002 0.032,0.005 0.05,0.009l0.012,-0.088c-0.009,-0.004 -0.023,-0.007 -0.041,-0.009c-0.018,-0.002 -0.035,-0.003 -0.052,-0.003Z" style="fill:#fff;fill-rule:nonzero;"/></g><g transform="matrix(33.333333,0,0,33.333333,158.46844,207.531102)"><path d="M0.299,-0.656l-0.091,0l0,0.128l-0.139,0l0,0.07l0.139,0l0,0.287c0,0.033 0.004,0.06 0.013,0.083c0.009,0.023 0.02,0.042 0.035,0.056c0.015,0.015 0.033,0.025 0.053,0.032c0.02,0.007 0.042,0.01 0.066,0.01c0.014,0 0.028,-0.001 0.042,-0.002c0.014,-0.001 0.028,-0.003 0.04,-0.006c0.013,-0.002 0.024,-0.005 0.035,-0.009c0.011,-0.003 0.02,-0.007 0.027,-0.012l-0.013,-0.064c-0.006,0.001 -0.013,0.003 -0.021,0.005c-0.009,0.002 -0.018,0.003 -0.028,0.005c-0.01,0.002 -0.02,0.003 -0.031,0.004c-0.01,0.001 -0.021,0.002 -0.03,0.002c-0.013,0 -0.026,-0.002 -0.038,-0.005c-0.012,-0.003 -0.022,-0.009 -0.031,-0.017c-0.009,-0.008 -0.016,-0.018 -0.021,-0.032c-0.005,-0.013 -0.008,-0.03 -0.008,-0.051l0,-0.287l0.201,0l0,-0.07l-0.201,0l0,-0.128Z" style="fill:#fff;fill-rule:nonzero;"/></g></g></g><path d="M29.757,31.239l-4.248,5.322l2.376,1.725l3.451,-5.762l3.483,5.908l2.376,-1.79l-4.167,-5.273l6.217,-1.53l-0.879,-2.897l-5.908,2.441l0.472,-6.95l-2.897,0l0.407,6.852l-5.941,-2.458l-0.879,2.848l6.136,1.562Z" style="fill:#fff;fill-rule:nonzero;"/><path d="M29.757,1489.092l-4.248,5.322l2.376,1.725l3.451,-5.762l3.483,5.908l2.376,-1.79l-4.167,-5.273l6.217,-1.53l-0.879,-2.897l-5.908,2.441l0.472,-6.95l-2.897,0l0.407,6.852l-5.941,-2.458l-0.879,2.848l6.136,1.562Z" style="fill:#fff;fill-rule:nonzero;"/><path d="M206.654,31.239l-4.248,5.322l2.376,1.725l3.451,-5.762l3.483,5.908l2.376,-1.79l-4.167,-5.273l6.217,-1.53l-0.879,-2.897l-5.908,2.441l0.472,-6.95l-2.897,0l0.407,6.852l-5.941,-2.458l-0.879,2.848l6.136,1.562Z" style="fill:#fff;fill-rule:nonzero;"/><path d="M206.654,1489.092l-4.248,5.322l2.376,1.725l3.451,-5.762l3.483,5.908l2.376,-1.79l-4.167,-5.273l6.217,-1.53l-0.879,-2.897l-5.908,2.441l0.472,-6.95l-2.897,0l0.407,6.852l-5.941,-2.458l-0.879,2.848l6.136,1.562Z" style="fill:#fff;fill-rule:nonzero;"/><g transform="matrix(1,0,0,1,-49.267594,1222.611245)"><g><g transform="matrix(33.333333,0,0,33.333333,78.455419,207.531102)"><path d="M0.204,0.061l0.296,-0.772l-0.081,0l-0.297,0.772l0.081,0Z" style="fill:#fff;fill-rule:nonzero;"/></g><g transform="matrix(33.333333,0,0,33.333333,98.458675,207.531102)"><path d="M0.299,-0.656l-0.091,0l0,0.128l-0.139,0l0,0.07l0.139,0l0,0.287c0,0.033 0.004,0.06 0.013,0.083c0.009,0.023 0.02,0.042 0.035,0.056c0.015,0.015 0.033,0.025 0.053,0.032c0.02,0.007 0.042,0.01 0.066,0.01c0.014,0 0.028,-0.001 0.042,-0.002c0.014,-0.001 0.028,-0.003 0.04,-0.006c0.013,-0.002 0.024,-0.005 0.035,-0.009c0.011,-0.003 0.02,-0.007 0.027,-0.012l-0.013,-0.064c-0.006,0.001 -0.013,0.003 -0.021,0.005c-0.009,0.002 -0.018,0.003 -0.028,0.005c-0.01,0.002 -0.02,0.003 -0.031,0.004c-0.01,0.001 -0.021,0.002 -0.03,0.002c-0.013,0 -0.026,-0.002 -0.038,-0.005c-0.012,-0.003 -0.022,-0.009 -0.031,-0.017c-0.009,-0.008 -0.016,-0.018 -0.021,-0.032c-0.005,-0.013 -0.008,-0.03 -0.008,-0.051l0,-0.287l0.201,0l0,-0.07l-0.201,0l0,-0.128Z" style="fill:#fff;fill-rule:nonzero;"/></g><g transform="matrix(33.333333,0,0,33.333333,118.46193,207.531102)"><path d="M0.099,-0.528l0,0.079l0.18,0l0,0.372l-0.18,0l0,0.078l0.442,-0l0,-0.078l-0.172,0l0,-0.45l-0.27,0Zm0.168,-0.139c0,0.015 0.004,0.027 0.013,0.037c0.009,0.01 0.023,0.015 0.041,0.015c0.018,0 0.031,-0.005 0.041,-0.015c0.009,-0.01 0.014,-0.022 0.014,-0.037c0,-0.008 -0.001,-0.016 -0.004,-0.022c-0.003,-0.007 -0.007,-0.013 -0.012,-0.017c-0.004,-0.004 -0.01,-0.008 -0.016,-0.01c-0.007,-0.002 -0.014,-0.004 -0.022,-0.004c-0.008,0 -0.016,0.001 -0.023,0.004c-0.007,0.002 -0.012,0.006 -0.016,0.01c-0.005,0.005 -0.009,0.011 -0.011,0.018c-0.002,0.007 -0.004,0.014 -0.004,0.022Z" style="fill:#fff;fill-rule:nonzero;"/></g><g transform="matrix(33.333333,0,0,33.333333,138.465185,207.531102)"><path d="M0.085,-0l0.09,-0l0,-0.379c0.006,-0.011 0.013,-0.022 0.022,-0.031c0.008,-0.009 0.017,-0.018 0.027,-0.025c0.012,-0.008 0.025,-0.015 0.04,-0.019c0.014,-0.005 0.03,-0.007 0.046,-0.007c0.019,0 0.036,0.002 0.051,0.007c0.015,0.005 0.027,0.012 0.038,0.022c0.01,0.01 0.018,0.023 0.023,0.04c0.005,0.016 0.008,0.036 0.008,0.06l0,0.333l0.09,-0l0,-0.335c0,-0.035 -0.004,-0.066 -0.013,-0.091c-0.009,-0.026 -0.021,-0.047 -0.037,-0.063c-0.016,-0.017 -0.035,-0.029 -0.058,-0.037c-0.023,-0.008 -0.048,-0.012 -0.075,-0.012c-0.021,0 -0.04,0.003 -0.058,0.009c-0.018,0.006 -0.035,0.014 -0.051,0.024c-0.01,0.007 -0.02,0.015 -0.03,0.024c-0.009,0.009 -0.018,0.019 -0.026,0.031l-0.006,-0.078l-0.081,0l0,0.528Z" style="fill:#fff;fill-rule:nonzero;"/></g><g transform="matrix(33.333333,0,0,33.333333,158.46844,207.531102)"><path d="M0.127,0.213c0.024,0 0.045,-0.004 0.063,-0.013c0.018,-0.009 0.034,-0.02 0.048,-0.033c0.014,-0.013 0.025,-0.027 0.035,-0.042c0.01,-0.015 0.017,-0.03 0.024,-0.043l0.268,-0.61l-0.101,0l-0.136,0.343l-0.025,0.062l-0.023,-0.064l-0.145,-0.341l-0.101,0l0.228,0.503l-0.036,0.07c-0.003,0.007 -0.008,0.015 -0.013,0.025c-0.006,0.01 -0.012,0.02 -0.02,0.029c-0.008,0.009 -0.017,0.018 -0.028,0.024c-0.01,0.007 -0.022,0.01 -0.034,0.01c-0.005,0 -0.011,-0 -0.019,-0.001c-0.008,-0 -0.016,-0.001 -0.024,-0.002l-0.015,0.074c0.006,0.001 0.014,0.003 0.026,0.005c0.011,0.002 0.021,0.003 0.03,0.003Z" style="fill:#fff;fill-rule:nonzero;"/></g><g transform="matrix(33.333333,0,0,33.333333,178.471695,207.531102)"><rect x="0.076" y="-0" width="0.448" height="0.074" style="fill:#fff;fill-rule:nonzero;"/></g><g transform="matrix(33.333333,0,0,33.333333,198.474951,207.531102)"><path d="M0.06,-0.269l0,0.011c0,0.038 0.006,0.073 0.017,0.106c0.011,0.033 0.027,0.061 0.048,0.085c0.021,0.024 0.046,0.043 0.075,0.057c0.03,0.014 0.063,0.021 0.101,0.021c0.037,0 0.07,-0.007 0.1,-0.021c0.03,-0.014 0.055,-0.033 0.076,-0.057c0.021,-0.024 0.036,-0.052 0.047,-0.085c0.011,-0.033 0.017,-0.068 0.017,-0.106l0,-0.011c0,-0.038 -0.006,-0.073 -0.017,-0.106c-0.011,-0.033 -0.027,-0.061 -0.047,-0.085c-0.021,-0.024 -0.046,-0.043 -0.076,-0.057c-0.03,-0.014 -0.063,-0.021 -0.101,-0.021c-0.037,0 -0.07,0.007 -0.1,0.021c-0.03,0.014 -0.055,0.033 -0.075,0.057c-0.021,0.024 -0.037,0.052 -0.048,0.085c-0.011,0.033 -0.017,0.068 -0.017,0.106Zm0.09,0.011l0,-0.011c0,-0.026 0.003,-0.05 0.009,-0.074c0.006,-0.024 0.016,-0.044 0.028,-0.062c0.012,-0.018 0.028,-0.032 0.046,-0.043c0.019,-0.011 0.04,-0.016 0.065,-0.016c0.025,0 0.047,0.005 0.066,0.016c0.019,0.011 0.034,0.025 0.047,0.043c0.012,0.018 0.022,0.039 0.028,0.062c0.006,0.024 0.01,0.048 0.01,0.074l0,0.011c0,0.026 -0.003,0.051 -0.009,0.074c-0.006,0.024 -0.015,0.044 -0.028,0.062c-0.013,0.018 -0.028,0.032 -0.047,0.042c-0.019,0.01 -0.04,0.016 -0.065,0.016c-0.025,0 -0.047,-0.005 -0.066,-0.016c-0.019,-0.01 -0.035,-0.025 -0.047,-0.042c-0.013,-0.018 -0.022,-0.039 -0.028,-0.062c-0.006,-0.024 -0.009,-0.048 -0.009,-0.074Z" style="fill:#fff;fill-rule:nonzero;"/></g><g transform="matrix(33.333333,0,0,33.333333,218.478206,207.531102)"><path d="M0.436,-0.14c0,0.008 -0.002,0.016 -0.005,0.024c-0.003,0.007 -0.008,0.014 -0.014,0.021c-0.01,0.01 -0.024,0.018 -0.042,0.024c-0.018,0.006 -0.039,0.009 -0.063,0.009c-0.015,0 -0.031,-0.002 -0.046,-0.005c-0.016,-0.003 -0.03,-0.009 -0.042,-0.017c-0.013,-0.008 -0.024,-0.018 -0.032,-0.031c-0.009,-0.013 -0.014,-0.028 -0.015,-0.047l-0.09,0c0,0.022 0.005,0.044 0.015,0.065c0.01,0.021 0.025,0.039 0.045,0.055c0.019,0.016 0.043,0.029 0.071,0.038c0.028,0.01 0.06,0.014 0.096,0.014c0.031,0 0.06,-0.004 0.086,-0.011c0.026,-0.007 0.049,-0.018 0.068,-0.032c0.019,-0.014 0.034,-0.03 0.044,-0.049c0.011,-0.019 0.016,-0.041 0.016,-0.064c0,-0.022 -0.005,-0.041 -0.014,-0.058c-0.009,-0.017 -0.023,-0.031 -0.04,-0.044c-0.018,-0.012 -0.039,-0.023 -0.065,-0.032c-0.026,-0.009 -0.055,-0.017 -0.087,-0.024c-0.025,-0.005 -0.045,-0.01 -0.061,-0.015c-0.016,-0.005 -0.029,-0.011 -0.038,-0.018c-0.01,-0.007 -0.017,-0.014 -0.021,-0.022c-0.004,-0.008 -0.006,-0.017 -0.006,-0.028c0,-0.01 0.002,-0.02 0.007,-0.029c0.005,-0.009 0.012,-0.018 0.022,-0.025c0.009,-0.007 0.021,-0.013 0.036,-0.017c0.014,-0.004 0.031,-0.006 0.051,-0.006c0.019,0 0.035,0.003 0.05,0.008c0.015,0.005 0.027,0.012 0.038,0.021c0.01,0.008 0.019,0.018 0.024,0.029c0.006,0.011 0.009,0.022 0.009,0.033l0.09,0c0,-0.023 -0.005,-0.045 -0.015,-0.065c-0.01,-0.02 -0.024,-0.038 -0.042,-0.052c-0.018,-0.015 -0.04,-0.027 -0.066,-0.035c-0.026,-0.008 -0.055,-0.013 -0.088,-0.013c-0.03,0 -0.058,0.004 -0.083,0.012c-0.025,0.008 -0.047,0.019 -0.065,0.033c-0.018,0.014 -0.032,0.03 -0.042,0.049c-0.01,0.019 -0.015,0.039 -0.015,0.06c0,0.022 0.005,0.041 0.015,0.057c0.01,0.016 0.024,0.031 0.042,0.043c0.018,0.012 0.039,0.023 0.064,0.032c0.025,0.009 0.052,0.016 0.083,0.022c0.025,0.005 0.045,0.01 0.062,0.016c0.017,0.006 0.03,0.013 0.04,0.02c0.01,0.007 0.017,0.015 0.021,0.024c0.004,0.009 0.006,0.018 0.006,0.029Z" style="fill:#fff;fill-rule:nonzero;"/></g><g transform="matrix(33.333333,0,0,33.333333,238.481461,207.531102)"><path d="M0.31,-0.063c-0.028,0 -0.052,-0.006 -0.071,-0.017c-0.019,-0.011 -0.034,-0.026 -0.046,-0.044c-0.012,-0.018 -0.02,-0.038 -0.025,-0.061c-0.005,-0.023 -0.008,-0.045 -0.008,-0.069l0,-0.021c0,-0.023 0.003,-0.045 0.008,-0.068c0.005,-0.022 0.013,-0.043 0.025,-0.061c0.012,-0.018 0.027,-0.032 0.046,-0.044c0.019,-0.011 0.043,-0.017 0.071,-0.017c0.018,0 0.035,0.003 0.051,0.009c0.016,0.006 0.029,0.015 0.041,0.025c0.011,0.011 0.02,0.023 0.027,0.037c0.007,0.014 0.01,0.029 0.01,0.045l0.085,0c0,-0.027 -0.005,-0.052 -0.016,-0.075c-0.011,-0.023 -0.026,-0.044 -0.044,-0.061c-0.019,-0.017 -0.042,-0.03 -0.068,-0.04c-0.026,-0.01 -0.055,-0.015 -0.086,-0.015c-0.04,0 -0.075,0.007 -0.105,0.021c-0.03,0.014 -0.055,0.034 -0.075,0.058c-0.02,0.024 -0.035,0.053 -0.045,0.084c-0.01,0.032 -0.015,0.065 -0.015,0.1l0,0.021c0,0.035 0.005,0.069 0.015,0.1c0.01,0.032 0.025,0.06 0.045,0.084c0.02,0.024 0.045,0.044 0.075,0.058c0.03,0.014 0.065,0.021 0.105,0.021c0.028,0 0.055,-0.005 0.081,-0.014c0.026,-0.01 0.049,-0.023 0.068,-0.039c0.02,-0.016 0.036,-0.035 0.048,-0.056c0.012,-0.021 0.018,-0.044 0.018,-0.067l-0.085,0c-0,0.015 -0.004,0.028 -0.011,0.041c-0.007,0.013 -0.017,0.023 -0.029,0.032c-0.012,0.009 -0.026,0.017 -0.041,0.022c-0.015,0.005 -0.031,0.008 -0.048,0.008Z" style="fill:#fff;fill-rule:nonzero;"/></g></g></g><g transform="matrix(1,0,0,1,-60.267594,89.920874)"><g><g transform="matrix(33.333333,0,0,33.333333,78.455419,207.531102)"><path d="M0.204,0.061l0.296,-0.772l-0.081,0l-0.297,0.772l0.081,0Z" style="fill:#fff;fill-rule:nonzero;"/></g><g transform="matrix(33.333333,0,0,33.333333,98.458675,207.531102)"><path d="M0.432,-0l0.094,-0l0,-0.008c-0.006,-0.015 -0.01,-0.032 -0.014,-0.052c-0.003,-0.02 -0.005,-0.038 -0.005,-0.056l0,-0.246c0,-0.03 -0.005,-0.056 -0.016,-0.078c-0.011,-0.022 -0.025,-0.041 -0.044,-0.056c-0.019,-0.015 -0.041,-0.026 -0.067,-0.033c-0.026,-0.007 -0.054,-0.011 -0.083,-0.011c-0.033,0 -0.062,0.005 -0.088,0.014c-0.026,0.009 -0.048,0.021 -0.066,0.036c-0.018,0.015 -0.032,0.032 -0.042,0.05c-0.01,0.019 -0.015,0.037 -0.015,0.057l0.091,0c0,-0.011 0.003,-0.022 0.008,-0.032c0.005,-0.01 0.013,-0.019 0.023,-0.027c0.01,-0.007 0.022,-0.014 0.036,-0.018c0.014,-0.005 0.03,-0.007 0.048,-0.007c0.019,0 0.037,0.002 0.052,0.007c0.015,0.005 0.029,0.012 0.039,0.021c0.011,0.009 0.019,0.02 0.025,0.033c0.006,0.013 0.009,0.027 0.009,0.043l0,0.042l-0.099,0c-0.037,0 -0.07,0.004 -0.1,0.011c-0.03,0.007 -0.055,0.018 -0.076,0.032c-0.021,0.015 -0.038,0.033 -0.049,0.055c-0.012,0.022 -0.017,0.047 -0.017,0.076c0,0.022 0.004,0.043 0.013,0.062c0.009,0.019 0.021,0.035 0.037,0.049c0.016,0.014 0.035,0.025 0.057,0.033c0.023,0.008 0.048,0.012 0.076,0.012c0.017,0 0.034,-0.002 0.049,-0.005c0.015,-0.004 0.03,-0.008 0.043,-0.015c0.013,-0.006 0.026,-0.013 0.037,-0.021c0.011,-0.008 0.021,-0.017 0.031,-0.026c0.001,0.011 0.003,0.022 0.005,0.032c0.002,0.01 0.005,0.019 0.009,0.026Zm-0.16,-0.069c-0.018,0 -0.033,-0.002 -0.046,-0.007c-0.013,-0.005 -0.024,-0.011 -0.033,-0.019c-0.009,-0.008 -0.015,-0.017 -0.02,-0.028c-0.004,-0.011 -0.007,-0.023 -0.007,-0.036c0,-0.014 0.003,-0.026 0.008,-0.037c0.005,-0.011 0.012,-0.02 0.022,-0.028c0.014,-0.011 0.032,-0.019 0.055,-0.025c0.023,-0.005 0.051,-0.008 0.082,-0.008l0.084,0l0,0.107c-0.005,0.01 -0.012,0.02 -0.021,0.03c-0.009,0.01 -0.02,0.018 -0.032,0.026c-0.013,0.007 -0.027,0.014 -0.042,0.018c-0.015,0.005 -0.032,0.007 -0.049,0.007Z" style="fill:#fff;fill-rule:nonzero;"/></g><g transform="matrix(33.333333,0,0,33.333333,118.46193,207.531102)"><path d="M0.068,-0.269l0,0.01c0,0.038 0.005,0.073 0.015,0.106c0.01,0.033 0.024,0.061 0.042,0.085c0.018,0.024 0.04,0.043 0.066,0.057c0.026,0.014 0.055,0.021 0.087,0.021c0.033,0 0.061,-0.006 0.085,-0.017c0.024,-0.011 0.045,-0.027 0.063,-0.049l0.004,0.056l0.083,-0l0,-0.75l-0.09,0l0,0.274c-0.017,-0.02 -0.038,-0.036 -0.061,-0.046c-0.024,-0.011 -0.051,-0.016 -0.083,-0.016c-0.032,0 -0.061,0.007 -0.087,0.02c-0.026,0.013 -0.048,0.032 -0.066,0.056c-0.019,0.024 -0.033,0.052 -0.043,0.085c-0.01,0.033 -0.015,0.069 -0.015,0.109Zm0.09,0.01l0,-0.01c0,-0.026 0.003,-0.05 0.008,-0.073c0.006,-0.023 0.014,-0.044 0.026,-0.062c0.011,-0.018 0.026,-0.032 0.044,-0.042c0.018,-0.01 0.04,-0.016 0.065,-0.016c0.03,0 0.054,0.007 0.074,0.021c0.02,0.014 0.036,0.031 0.047,0.053l0,0.245c-0.012,0.023 -0.028,0.042 -0.047,0.055c-0.02,0.014 -0.045,0.021 -0.075,0.021c-0.025,0 -0.047,-0.005 -0.064,-0.015c-0.018,-0.01 -0.033,-0.024 -0.044,-0.042c-0.012,-0.018 -0.02,-0.038 -0.026,-0.061c-0.006,-0.023 -0.008,-0.048 -0.008,-0.073Z" style="fill:#fff;fill-rule:nonzero;"/></g><g transform="matrix(33.333333,0,0,33.333333,138.465185,207.531102)"><path d="M0.068,-0.269l0,0.01c0,0.038 0.005,0.073 0.015,0.106c0.01,0.033 0.024,0.061 0.042,0.085c0.018,0.024 0.04,0.043 0.066,0.057c0.026,0.014 0.055,0.021 0.087,0.021c0.033,0 0.061,-0.006 0.085,-0.017c0.024,-0.011 0.045,-0.027 0.063,-0.049l0.004,0.056l0.083,-0l0,-0.75l-0.09,0l0,0.274c-0.017,-0.02 -0.038,-0.036 -0.061,-0.046c-0.024,-0.011 -0.051,-0.016 -0.083,-0.016c-0.032,0 -0.061,0.007 -0.087,0.02c-0.026,0.013 -0.048,0.032 -0.066,0.056c-0.019,0.024 -0.033,0.052 -0.043,0.085c-0.01,0.033 -0.015,0.069 -0.015,0.109Zm0.09,0.01l0,-0.01c0,-0.026 0.003,-0.05 0.008,-0.073c0.006,-0.023 0.014,-0.044 0.026,-0.062c0.011,-0.018 0.026,-0.032 0.044,-0.042c0.018,-0.01 0.04,-0.016 0.065,-0.016c0.03,0 0.054,0.007 0.074,0.021c0.02,0.014 0.036,0.031 0.047,0.053l0,0.245c-0.012,0.023 -0.028,0.042 -0.047,0.055c-0.02,0.014 -0.045,0.021 -0.075,0.021c-0.025,0 -0.047,-0.005 -0.064,-0.015c-0.018,-0.01 -0.033,-0.024 -0.044,-0.042c-0.012,-0.018 -0.02,-0.038 -0.026,-0.061c-0.006,-0.023 -0.008,-0.048 -0.008,-0.073Z" style="fill:#fff;fill-rule:nonzero;"/></g><g transform="matrix(33.333333,0,0,33.333333,158.46844,207.531102)"><path d="M0.431,-0.538c-0.038,0 -0.073,0.008 -0.103,0.025c-0.03,0.017 -0.056,0.04 -0.077,0.069l-0,-0.013l-0.004,-0.071l-0.086,0l0,0.528l0.091,-0l0,-0.339c0.006,-0.016 0.013,-0.031 0.022,-0.044c0.009,-0.013 0.019,-0.024 0.031,-0.033c0.013,-0.01 0.029,-0.018 0.047,-0.024c0.018,-0.005 0.038,-0.008 0.06,-0.008c0.017,0 0.034,0.001 0.05,0.003c0.016,0.002 0.032,0.005 0.05,0.009l0.012,-0.088c-0.009,-0.004 -0.023,-0.007 -0.041,-0.009c-0.018,-0.002 -0.035,-0.003 -0.052,-0.003Z" style="fill:#fff;fill-rule:nonzero;"/></g><g transform="matrix(33.333333,0,0,33.333333,178.471695,207.531102)"><path d="M0.318,0.01c0.051,0 0.095,-0.01 0.13,-0.031c0.035,-0.021 0.061,-0.044 0.079,-0.071l-0.055,-0.043c-0.017,0.021 -0.037,0.039 -0.062,0.052c-0.025,0.013 -0.054,0.02 -0.086,0.02c-0.024,0 -0.047,-0.005 -0.067,-0.014c-0.02,-0.009 -0.037,-0.022 -0.052,-0.038c-0.014,-0.015 -0.025,-0.032 -0.033,-0.052c-0.008,-0.02 -0.013,-0.042 -0.015,-0.068l0,-0.003l0.377,0l0,-0.041c0,-0.037 -0.005,-0.071 -0.014,-0.103c-0.009,-0.032 -0.023,-0.059 -0.042,-0.083c-0.019,-0.023 -0.043,-0.041 -0.071,-0.054c-0.028,-0.013 -0.062,-0.02 -0.1,-0.02c-0.03,0 -0.06,0.006 -0.089,0.019c-0.029,0.012 -0.054,0.03 -0.077,0.053c-0.023,0.023 -0.041,0.052 -0.055,0.086c-0.014,0.034 -0.021,0.072 -0.021,0.115l0,0.021c0,0.037 0.006,0.071 0.019,0.102c0.012,0.031 0.03,0.058 0.052,0.081c0.022,0.023 0.049,0.041 0.08,0.053c0.031,0.013 0.065,0.019 0.102,0.019Zm-0.012,-0.474c0.023,0 0.043,0.004 0.06,0.013c0.017,0.008 0.031,0.02 0.042,0.033c0.011,0.014 0.02,0.03 0.026,0.049c0.006,0.019 0.009,0.036 0.009,0.052l0,0.004l-0.284,0c0.004,-0.024 0.01,-0.046 0.019,-0.065c0.009,-0.019 0.02,-0.035 0.033,-0.048c0.013,-0.013 0.028,-0.022 0.044,-0.029c0.016,-0.007 0.034,-0.01 0.052,-0.01Z" style="fill:#fff;fill-rule:nonzero;"/></g><g transform="matrix(33.333333,0,0,33.333333,198.474951,207.531102)"><path d="M0.436,-0.14c0,0.008 -0.002,0.016 -0.005,0.024c-0.003,0.007 -0.008,0.014 -0.014,0.021c-0.01,0.01 -0.024,0.018 -0.042,0.024c-0.018,0.006 -0.039,0.009 -0.063,0.009c-0.015,0 -0.031,-0.002 -0.046,-0.005c-0.016,-0.003 -0.03,-0.009 -0.042,-0.017c-0.013,-0.008 -0.024,-0.018 -0.032,-0.031c-0.009,-0.013 -0.014,-0.028 -0.015,-0.047l-0.09,0c0,0.022 0.005,0.044 0.015,0.065c0.01,0.021 0.025,0.039 0.045,0.055c0.019,0.016 0.043,0.029 0.071,0.038c0.028,0.01 0.06,0.014 0.096,0.014c0.031,0 0.06,-0.004 0.086,-0.011c0.026,-0.007 0.049,-0.018 0.068,-0.032c0.019,-0.014 0.034,-0.03 0.044,-0.049c0.011,-0.019 0.016,-0.041 0.016,-0.064c0,-0.022 -0.005,-0.041 -0.014,-0.058c-0.009,-0.017 -0.023,-0.031 -0.04,-0.044c-0.018,-0.012 -0.039,-0.023 -0.065,-0.032c-0.026,-0.009 -0.055,-0.017 -0.087,-0.024c-0.025,-0.005 -0.045,-0.01 -0.061,-0.015c-0.016,-0.005 -0.029,-0.011 -0.038,-0.018c-0.01,-0.007 -0.017,-0.014 -0.021,-0.022c-0.004,-0.008 -0.006,-0.017 -0.006,-0.028c0,-0.01 0.002,-0.02 0.007,-0.029c0.005,-0.009 0.012,-0.018 0.022,-0.025c0.009,-0.007 0.021,-0.013 0.036,-0.017c0.014,-0.004 0.031,-0.006 0.051,-0.006c0.019,0 0.035,0.003 0.05,0.008c0.015,0.005 0.027,0.012 0.038,0.021c0.01,0.008 0.019,0.018 0.024,0.029c0.006,0.011 0.009,0.022 0.009,0.033l0.09,0c0,-0.023 -0.005,-0.045 -0.015,-0.065c-0.01,-0.02 -0.024,-0.038 -0.042,-0.052c-0.018,-0.015 -0.04,-0.027 -0.066,-0.035c-0.026,-0.008 -0.055,-0.013 -0.088,-0.013c-0.03,0 -0.058,0.004 -0.083,0.012c-0.025,0.008 -0.047,0.019 -0.065,0.033c-0.018,0.014 -0.032,0.03 -0.042,0.049c-0.01,0.019 -0.015,0.039 -0.015,0.06c0,0.022 0.005,0.041 0.015,0.057c0.01,0.016 0.024,0.031 0.042,0.043c0.018,0.012 0.039,0.023 0.064,0.032c0.025,0.009 0.052,0.016 0.083,0.022c0.025,0.005 0.045,0.01 0.062,0.016c0.017,0.006 0.03,0.013 0.04,0.02c0.01,0.007 0.017,0.015 0.021,0.024c0.004,0.009 0.006,0.018 0.006,0.029Z" style="fill:#fff;fill-rule:nonzero;"/></g><g transform="matrix(33.333333,0,0,33.333333,218.478206,207.531102)"><path d="M0.436,-0.14c0,0.008 -0.002,0.016 -0.005,0.024c-0.003,0.007 -0.008,0.014 -0.014,0.021c-0.01,0.01 -0.024,0.018 -0.042,0.024c-0.018,0.006 -0.039,0.009 -0.063,0.009c-0.015,0 -0.031,-0.002 -0.046,-0.005c-0.016,-0.003 -0.03,-0.009 -0.042,-0.017c-0.013,-0.008 -0.024,-0.018 -0.032,-0.031c-0.009,-0.013 -0.014,-0.028 -0.015,-0.047l-0.09,0c0,0.022 0.005,0.044 0.015,0.065c0.01,0.021 0.025,0.039 0.045,0.055c0.019,0.016 0.043,0.029 0.071,0.038c0.028,0.01 0.06,0.014 0.096,0.014c0.031,0 0.06,-0.004 0.086,-0.011c0.026,-0.007 0.049,-0.018 0.068,-0.032c0.019,-0.014 0.034,-0.03 0.044,-0.049c0.011,-0.019 0.016,-0.041 0.016,-0.064c0,-0.022 -0.005,-0.041 -0.014,-0.058c-0.009,-0.017 -0.023,-0.031 -0.04,-0.044c-0.018,-0.012 -0.039,-0.023 -0.065,-0.032c-0.026,-0.009 -0.055,-0.017 -0.087,-0.024c-0.025,-0.005 -0.045,-0.01 -0.061,-0.015c-0.016,-0.005 -0.029,-0.011 -0.038,-0.018c-0.01,-0.007 -0.017,-0.014 -0.021,-0.022c-0.004,-0.008 -0.006,-0.017 -0.006,-0.028c0,-0.01 0.002,-0.02 0.007,-0.029c0.005,-0.009 0.012,-0.018 0.022,-0.025c0.009,-0.007 0.021,-0.013 0.036,-0.017c0.014,-0.004 0.031,-0.006 0.051,-0.006c0.019,0 0.035,0.003 0.05,0.008c0.015,0.005 0.027,0.012 0.038,0.021c0.01,0.008 0.019,0.018 0.024,0.029c0.006,0.011 0.009,0.022 0.009,0.033l0.09,0c0,-0.023 -0.005,-0.045 -0.015,-0.065c-0.01,-0.02 -0.024,-0.038 -0.042,-0.052c-0.018,-0.015 -0.04,-0.027 -0.066,-0.035c-0.026,-0.008 -0.055,-0.013 -0.088,-0.013c-0.03,0 -0.058,0.004 -0.083,0.012c-0.025,0.008 -0.047,0.019 -0.065,0.033c-0.018,0.014 -0.032,0.03 -0.042,0.049c-0.01,0.019 -0.015,0.039 -0.015,0.06c0,0.022 0.005,0.041 0.015,0.057c0.01,0.016 0.024,0.031 0.042,0.043c0.018,0.012 0.039,0.023 0.064,0.032c0.025,0.009 0.052,0.016 0.083,0.022c0.025,0.005 0.045,0.01 0.062,0.016c0.017,0.006 0.03,0.013 0.04,0.02c0.01,0.007 0.017,0.015 0.021,0.024c0.004,0.009 0.006,0.018 0.006,0.029Z" style="fill:#fff;fill-rule:nonzero;"/></g></g></g><g transform="matrix(1,0,0,1,-21.874365,460.836033)"><g><g transform="matrix(33.333333,0,0,33.333333,78.455419,207.531102)"><path d="M0.204,0.061l0.296,-0.772l-0.081,0l-0.297,0.772l0.081,0Z" style="fill:#fff;fill-rule:nonzero;"/></g><g transform="matrix(33.333333,0,0,33.333333,98.458675,207.531102)"><path d="M0.436,-0.14c0,0.008 -0.002,0.016 -0.005,0.024c-0.003,0.007 -0.008,0.014 -0.014,0.021c-0.01,0.01 -0.024,0.018 -0.042,0.024c-0.018,0.006 -0.039,0.009 -0.063,0.009c-0.015,0 -0.031,-0.002 -0.046,-0.005c-0.016,-0.003 -0.03,-0.009 -0.042,-0.017c-0.013,-0.008 -0.024,-0.018 -0.032,-0.031c-0.009,-0.013 -0.014,-0.028 -0.015,-0.047l-0.09,0c0,0.022 0.005,0.044 0.015,0.065c0.01,0.021 0.025,0.039 0.045,0.055c0.019,0.016 0.043,0.029 0.071,0.038c0.028,0.01 0.06,0.014 0.096,0.014c0.031,0 0.06,-0.004 0.086,-0.011c0.026,-0.007 0.049,-0.018 0.068,-0.032c0.019,-0.014 0.034,-0.03 0.044,-0.049c0.011,-0.019 0.016,-0.041 0.016,-0.064c0,-0.022 -0.005,-0.041 -0.014,-0.058c-0.009,-0.017 -0.023,-0.031 -0.04,-0.044c-0.018,-0.012 -0.039,-0.023 -0.065,-0.032c-0.026,-0.009 -0.055,-0.017 -0.087,-0.024c-0.025,-0.005 -0.045,-0.01 -0.061,-0.015c-0.016,-0.005 -0.029,-0.011 -0.038,-0.018c-0.01,-0.007 -0.017,-0.014 -0.021,-0.022c-0.004,-0.008 -0.006,-0.017 -0.006,-0.028c0,-0.01 0.002,-0.02 0.007,-0.029c0.005,-0.009 0.012,-0.018 0.022,-0.025c0.009,-0.007 0.021,-0.013 0.036,-0.017c0.014,-0.004 0.031,-0.006 0.051,-0.006c0.019,0 0.035,0.003 0.05,0.008c0.015,0.005 0.027,0.012 0.038,0.021c0.01,0.008 0.019,0.018 0.024,0.029c0.006,0.011 0.009,0.022 0.009,0.033l0.09,0c0,-0.023 -0.005,-0.045 -0.015,-0.065c-0.01,-0.02 -0.024,-0.038 -0.042,-0.052c-0.018,-0.015 -0.04,-0.027 -0.066,-0.035c-0.026,-0.008 -0.055,-0.013 -0.088,-0.013c-0.03,0 -0.058,0.004 -0.083,0.012c-0.025,0.008 -0.047,0.019 -0.065,0.033c-0.018,0.014 -0.032,0.03 -0.042,0.049c-0.01,0.019 -0.015,0.039 -0.015,0.06c0,0.022 0.005,0.041 0.015,0.057c0.01,0.016 0.024,0.031 0.042,0.043c0.018,0.012 0.039,0.023 0.064,0.032c0.025,0.009 0.052,0.016 0.083,0.022c0.025,0.005 0.045,0.01 0.062,0.016c0.017,0.006 0.03,0.013 0.04,0.02c0.01,0.007 0.017,0.015 0.021,0.024c0.004,0.009 0.006,0.018 0.006,0.029Z" style="fill:#fff;fill-rule:nonzero;"/></g><g transform="matrix(33.333333,0,0,33.333333,118.46193,207.531102)"><path d="M0.31,-0.063c-0.028,0 -0.052,-0.006 -0.071,-0.017c-0.019,-0.011 -0.034,-0.026 -0.046,-0.044c-0.012,-0.018 -0.02,-0.038 -0.025,-0.061c-0.005,-0.023 -0.008,-0.045 -0.008,-0.069l0,-0.021c0,-0.023 0.003,-0.045 0.008,-0.068c0.005,-0.022 0.013,-0.043 0.025,-0.061c0.012,-0.018 0.027,-0.032 0.046,-0.044c0.019,-0.011 0.043,-0.017 0.071,-0.017c0.018,0 0.035,0.003 0.051,0.009c0.016,0.006 0.029,0.015 0.041,0.025c0.011,0.011 0.02,0.023 0.027,0.037c0.007,0.014 0.01,0.029 0.01,0.045l0.085,0c0,-0.027 -0.005,-0.052 -0.016,-0.075c-0.011,-0.023 -0.026,-0.044 -0.044,-0.061c-0.019,-0.017 -0.042,-0.03 -0.068,-0.04c-0.026,-0.01 -0.055,-0.015 -0.086,-0.015c-0.04,0 -0.075,0.007 -0.105,0.021c-0.03,0.014 -0.055,0.034 -0.075,0.058c-0.02,0.024 -0.035,0.053 -0.045,0.084c-0.01,0.032 -0.015,0.065 -0.015,0.1l0,0.021c0,0.035 0.005,0.069 0.015,0.1c0.01,0.032 0.025,0.06 0.045,0.084c0.02,0.024 0.045,0.044 0.075,0.058c0.03,0.014 0.065,0.021 0.105,0.021c0.028,0 0.055,-0.005 0.081,-0.014c0.026,-0.01 0.049,-0.023 0.068,-0.039c0.02,-0.016 0.036,-0.035 0.048,-0.056c0.012,-0.021 0.018,-0.044 0.018,-0.067l-0.085,0c-0,0.015 -0.004,0.028 -0.011,0.041c-0.007,0.013 -0.017,0.023 -0.029,0.032c-0.012,0.009 -0.026,0.017 -0.041,0.022c-0.015,0.005 -0.031,0.008 -0.048,0.008Z" style="fill:#fff;fill-rule:nonzero;"/></g><g transform="matrix(33.333333,0,0,33.333333,138.465185,207.531102)"><path d="M0.432,-0l0.094,-0l0,-0.008c-0.006,-0.015 -0.01,-0.032 -0.014,-0.052c-0.003,-0.02 -0.005,-0.038 -0.005,-0.056l0,-0.246c0,-0.03 -0.005,-0.056 -0.016,-0.078c-0.011,-0.022 -0.025,-0.041 -0.044,-0.056c-0.019,-0.015 -0.041,-0.026 -0.067,-0.033c-0.026,-0.007 -0.054,-0.011 -0.083,-0.011c-0.033,0 -0.062,0.005 -0.088,0.014c-0.026,0.009 -0.048,0.021 -0.066,0.036c-0.018,0.015 -0.032,0.032 -0.042,0.05c-0.01,0.019 -0.015,0.037 -0.015,0.057l0.091,0c0,-0.011 0.003,-0.022 0.008,-0.032c0.005,-0.01 0.013,-0.019 0.023,-0.027c0.01,-0.007 0.022,-0.014 0.036,-0.018c0.014,-0.005 0.03,-0.007 0.048,-0.007c0.019,0 0.037,0.002 0.052,0.007c0.015,0.005 0.029,0.012 0.039,0.021c0.011,0.009 0.019,0.02 0.025,0.033c0.006,0.013 0.009,0.027 0.009,0.043l0,0.042l-0.099,0c-0.037,0 -0.07,0.004 -0.1,0.011c-0.03,0.007 -0.055,0.018 -0.076,0.032c-0.021,0.015 -0.038,0.033 -0.049,0.055c-0.012,0.022 -0.017,0.047 -0.017,0.076c0,0.022 0.004,0.043 0.013,0.062c0.009,0.019 0.021,0.035 0.037,0.049c0.016,0.014 0.035,0.025 0.057,0.033c0.023,0.008 0.048,0.012 0.076,0.012c0.017,0 0.034,-0.002 0.049,-0.005c0.015,-0.004 0.03,-0.008 0.043,-0.015c0.013,-0.006 0.026,-0.013 0.037,-0.021c0.011,-0.008 0.021,-0.017 0.031,-0.026c0.001,0.011 0.003,0.022 0.005,0.032c0.002,0.01 0.005,0.019 0.009,0.026Zm-0.16,-0.069c-0.018,0 -0.033,-0.002 -0.046,-0.007c-0.013,-0.005 -0.024,-0.011 -0.033,-0.019c-0.009,-0.008 -0.015,-0.017 -0.02,-0.028c-0.004,-0.011 -0.007,-0.023 -0.007,-0.036c0,-0.014 0.003,-0.026 0.008,-0.037c0.005,-0.011 0.012,-0.02 0.022,-0.028c0.014,-0.011 0.032,-0.019 0.055,-0.025c0.023,-0.005 0.051,-0.008 0.082,-0.008l0.084,0l0,0.107c-0.005,0.01 -0.012,0.02 -0.021,0.03c-0.009,0.01 -0.02,0.018 -0.032,0.026c-0.013,0.007 -0.027,0.014 -0.042,0.018c-0.015,0.005 -0.032,0.007 -0.049,0.007Z" style="fill:#fff;fill-rule:nonzero;"/></g><g transform="matrix(33.333333,0,0,33.333333,158.46844,207.531102)"><path d="M0.099,-0.75l0,0.079l0.18,0l0,0.593l-0.18,0l0,0.078l0.442,-0l0,-0.078l-0.172,0l0,-0.672l-0.27,0Z" style="fill:#fff;fill-rule:nonzero;"/></g><g transform="matrix(33.333333,0,0,33.333333,178.471695,207.531102)"><path d="M0.318,0.01c0.051,0 0.095,-0.01 0.13,-0.031c0.035,-0.021 0.061,-0.044 0.079,-0.071l-0.055,-0.043c-0.017,0.021 -0.037,0.039 -0.062,0.052c-0.025,0.013 -0.054,0.02 -0.086,0.02c-0.024,0 -0.047,-0.005 -0.067,-0.014c-0.02,-0.009 -0.037,-0.022 -0.052,-0.038c-0.014,-0.015 -0.025,-0.032 -0.033,-0.052c-0.008,-0.02 -0.013,-0.042 -0.015,-0.068l0,-0.003l0.377,0l0,-0.041c0,-0.037 -0.005,-0.071 -0.014,-0.103c-0.009,-0.032 -0.023,-0.059 -0.042,-0.083c-0.019,-0.023 -0.043,-0.041 -0.071,-0.054c-0.028,-0.013 -0.062,-0.02 -0.1,-0.02c-0.03,0 -0.06,0.006 -0.089,0.019c-0.029,0.012 -0.054,0.03 -0.077,0.053c-0.023,0.023 -0.041,0.052 -0.055,0.086c-0.014,0.034 -0.021,0.072 -0.021,0.115l0,0.021c0,0.037 0.006,0.071 0.019,0.102c0.012,0.031 0.03,0.058 0.052,0.081c0.022,0.023 0.049,0.041 0.08,0.053c0.031,0.013 0.065,0.019 0.102,0.019Zm-0.012,-0.474c0.023,0 0.043,0.004 0.06,0.013c0.017,0.008 0.031,0.02 0.042,0.033c0.011,0.014 0.02,0.03 0.026,0.049c0.006,0.019 0.009,0.036 0.009,0.052l0,0.004l-0.284,0c0.004,-0.024 0.01,-0.046 0.019,-0.065c0.009,-0.019 0.02,-0.035 0.033,-0.048c0.013,-0.013 0.028,-0.022 0.044,-0.029c0.016,-0.007 0.034,-0.01 0.052,-0.01Z" style="fill:#fff;fill-rule:nonzero;"/></g></g></g><g transform="matrix(1,0,0,1,-29.182958,787.241764)"><g><g transform="matrix(33.333333,0,0,33.333333,78.455419,207.531102)"><path d="M0.204,0.061l0.296,-0.772l-0.081,0l-0.297,0.772l0.081,0Z" style="fill:#fff;fill-rule:nonzero;"/></g><g transform="matrix(33.333333,0,0,33.333333,98.458675,207.531102)"><path d="M0.06,-0.269l0,0.011c0,0.038 0.006,0.073 0.017,0.106c0.011,0.033 0.027,0.061 0.048,0.085c0.021,0.024 0.046,0.043 0.075,0.057c0.03,0.014 0.063,0.021 0.101,0.021c0.037,0 0.07,-0.007 0.1,-0.021c0.03,-0.014 0.055,-0.033 0.076,-0.057c0.021,-0.024 0.036,-0.052 0.047,-0.085c0.011,-0.033 0.017,-0.068 0.017,-0.106l0,-0.011c0,-0.038 -0.006,-0.073 -0.017,-0.106c-0.011,-0.033 -0.027,-0.061 -0.047,-0.085c-0.021,-0.024 -0.046,-0.043 -0.076,-0.057c-0.03,-0.014 -0.063,-0.021 -0.101,-0.021c-0.037,0 -0.07,0.007 -0.1,0.021c-0.03,0.014 -0.055,0.033 -0.075,0.057c-0.021,0.024 -0.037,0.052 -0.048,0.085c-0.011,0.033 -0.017,0.068 -0.017,0.106Zm0.09,0.011l0,-0.011c0,-0.026 0.003,-0.05 0.009,-0.074c0.006,-0.024 0.016,-0.044 0.028,-0.062c0.012,-0.018 0.028,-0.032 0.046,-0.043c0.019,-0.011 0.04,-0.016 0.065,-0.016c0.025,0 0.047,0.005 0.066,0.016c0.019,0.011 0.034,0.025 0.047,0.043c0.012,0.018 0.022,0.039 0.028,0.062c0.006,0.024 0.01,0.048 0.01,0.074l0,0.011c0,0.026 -0.003,0.051 -0.009,0.074c-0.006,0.024 -0.015,0.044 -0.028,0.062c-0.013,0.018 -0.028,0.032 -0.047,0.042c-0.019,0.01 -0.04,0.016 -0.065,0.016c-0.025,0 -0.047,-0.005 -0.066,-0.016c-0.019,-0.01 -0.035,-0.025 -0.047,-0.042c-0.013,-0.018 -0.022,-0.039 -0.028,-0.062c-0.006,-0.024 -0.009,-0.048 -0.009,-0.074Z" style="fill:#fff;fill-rule:nonzero;"/></g><g transform="matrix(33.333333,0,0,33.333333,118.46193,207.531102)"><path d="M0.22,-0l0.091,-0l0,-0.458l0.204,0l0,-0.07l-0.204,0l0,-0.037c0,-0.022 0.003,-0.042 0.009,-0.058c0.006,-0.017 0.014,-0.03 0.025,-0.041c0.01,-0.01 0.024,-0.018 0.039,-0.023c0.016,-0.005 0.034,-0.008 0.054,-0.008c0.02,0 0.039,0.002 0.057,0.005c0.018,0.003 0.033,0.007 0.047,0.012l0.011,-0.075c-0.008,-0.002 -0.017,-0.004 -0.025,-0.006c-0.008,-0.002 -0.016,-0.003 -0.024,-0.005c-0.012,-0.002 -0.025,-0.004 -0.038,-0.006c-0.013,-0.001 -0.026,-0.002 -0.039,-0.002c-0.031,0 -0.06,0.004 -0.085,0.013c-0.025,0.009 -0.047,0.022 -0.065,0.039c-0.018,0.017 -0.032,0.039 -0.042,0.064c-0.01,0.026 -0.015,0.055 -0.015,0.089l0,0.037l-0.146,0l0,0.07l0.146,0l0,0.458Z" style="fill:#fff;fill-rule:nonzero;"/></g><g transform="matrix(33.333333,0,0,33.333333,138.465185,207.531102)"><path d="M0.22,-0l0.091,-0l0,-0.458l0.204,0l0,-0.07l-0.204,0l0,-0.037c0,-0.022 0.003,-0.042 0.009,-0.058c0.006,-0.017 0.014,-0.03 0.025,-0.041c0.01,-0.01 0.024,-0.018 0.039,-0.023c0.016,-0.005 0.034,-0.008 0.054,-0.008c0.02,0 0.039,0.002 0.057,0.005c0.018,0.003 0.033,0.007 0.047,0.012l0.011,-0.075c-0.008,-0.002 -0.017,-0.004 -0.025,-0.006c-0.008,-0.002 -0.016,-0.003 -0.024,-0.005c-0.012,-0.002 -0.025,-0.004 -0.038,-0.006c-0.013,-0.001 -0.026,-0.002 -0.039,-0.002c-0.031,0 -0.06,0.004 -0.085,0.013c-0.025,0.009 -0.047,0.022 -0.065,0.039c-0.018,0.017 -0.032,0.039 -0.042,0.064c-0.01,0.026 -0.015,0.055 -0.015,0.089l0,0.037l-0.146,0l0,0.07l0.146,0l0,0.458Z" style="fill:#fff;fill-rule:nonzero;"/></g><g transform="matrix(33.333333,0,0,33.333333,158.46844,207.531102)"><path d="M0.436,-0.14c0,0.008 -0.002,0.016 -0.005,0.024c-0.003,0.007 -0.008,0.014 -0.014,0.021c-0.01,0.01 -0.024,0.018 -0.042,0.024c-0.018,0.006 -0.039,0.009 -0.063,0.009c-0.015,0 -0.031,-0.002 -0.046,-0.005c-0.016,-0.003 -0.03,-0.009 -0.042,-0.017c-0.013,-0.008 -0.024,-0.018 -0.032,-0.031c-0.009,-0.013 -0.014,-0.028 -0.015,-0.047l-0.09,0c0,0.022 0.005,0.044 0.015,0.065c0.01,0.021 0.025,0.039 0.045,0.055c0.019,0.016 0.043,0.029 0.071,0.038c0.028,0.01 0.06,0.014 0.096,0.014c0.031,0 0.06,-0.004 0.086,-0.011c0.026,-0.007 0.049,-0.018 0.068,-0.032c0.019,-0.014 0.034,-0.03 0.044,-0.049c0.011,-0.019 0.016,-0.041 0.016,-0.064c0,-0.022 -0.005,-0.041 -0.014,-0.058c-0.009,-0.017 -0.023,-0.031 -0.04,-0.044c-0.018,-0.012 -0.039,-0.023 -0.065,-0.032c-0.026,-0.009 -0.055,-0.017 -0.087,-0.024c-0.025,-0.005 -0.045,-0.01 -0.061,-0.015c-0.016,-0.005 -0.029,-0.011 -0.038,-0.018c-0.01,-0.007 -0.017,-0.014 -0.021,-0.022c-0.004,-0.008 -0.006,-0.017 -0.006,-0.028c0,-0.01 0.002,-0.02 0.007,-0.029c0.005,-0.009 0.012,-0.018 0.022,-0.025c0.009,-0.007 0.021,-0.013 0.036,-0.017c0.014,-0.004 0.031,-0.006 0.051,-0.006c0.019,0 0.035,0.003 0.05,0.008c0.015,0.005 0.027,0.012 0.038,0.021c0.01,0.008 0.019,0.018 0.024,0.029c0.006,0.011 0.009,0.022 0.009,0.033l0.09,0c0,-0.023 -0.005,-0.045 -0.015,-0.065c-0.01,-0.02 -0.024,-0.038 -0.042,-0.052c-0.018,-0.015 -0.04,-0.027 -0.066,-0.035c-0.026,-0.008 -0.055,-0.013 -0.088,-0.013c-0.03,0 -0.058,0.004 -0.083,0.012c-0.025,0.008 -0.047,0.019 -0.065,0.033c-0.018,0.014 -0.032,0.03 -0.042,0.049c-0.01,0.019 -0.015,0.039 -0.015,0.06c0,0.022 0.005,0.041 0.015,0.057c0.01,0.016 0.024,0.031 0.042,0.043c0.018,0.012 0.039,0.023 0.064,0.032c0.025,0.009 0.052,0.016 0.083,0.022c0.025,0.005 0.045,0.01 0.062,0.016c0.017,0.006 0.03,0.013 0.04,0.02c0.01,0.007 0.017,0.015 0.021,0.024c0.004,0.009 0.006,0.018 0.006,0.029Z" style="fill:#fff;fill-rule:nonzero;"/></g><g transform="matrix(33.333333,0,0,33.333333,178.471695,207.531102)"><path d="M0.318,0.01c0.051,0 0.095,-0.01 0.13,-0.031c0.035,-0.021 0.061,-0.044 0.079,-0.071l-0.055,-0.043c-0.017,0.021 -0.037,0.039 -0.062,0.052c-0.025,0.013 -0.054,0.02 -0.086,0.02c-0.024,0 -0.047,-0.005 -0.067,-0.014c-0.02,-0.009 -0.037,-0.022 -0.052,-0.038c-0.014,-0.015 -0.025,-0.032 -0.033,-0.052c-0.008,-0.02 -0.013,-0.042 -0.015,-0.068l0,-0.003l0.377,0l0,-0.041c0,-0.037 -0.005,-0.071 -0.014,-0.103c-0.009,-0.032 -0.023,-0.059 -0.042,-0.083c-0.019,-0.023 -0.043,-0.041 -0.071,-0.054c-0.028,-0.013 -0.062,-0.02 -0.1,-0.02c-0.03,0 -0.06,0.006 -0.089,0.019c-0.029,0.012 -0.054,0.03 -0.077,0.053c-0.023,0.023 -0.041,0.052 -0.055,0.086c-0.014,0.034 -0.021,0.072 -0.021,0.115l0,0.021c0,0.037 0.006,0.071 0.019,0.102c0.012,0.031 0.03,0.058 0.052,0.081c0.022,0.023 0.049,0.041 0.08,0.053c0.031,0.013 0.065,0.019 0.102,0.019Zm-0.012,-0.474c0.023,0 0.043,0.004 0.06,0.013c0.017,0.008 0.031,0.02 0.042,0.033c0.011,0.014 0.02,0.03 0.026,0.049c0.006,0.019 0.009,0.036 0.009,0.052l0,0.004l-0.284,0c0.004,-0.024 0.01,-0.046 0.019,-0.065c0.009,-0.019 0.02,-0.035 0.033,-0.048c0.013,-0.013 0.028,-0.022 0.044,-0.029c0.016,-0.007 0.034,-0.01 0.052,-0.01Z" style="fill:#fff;fill-rule:nonzero;"/></g><g transform="matrix(33.333333,0,0,33.333333,198.474951,207.531102)"><path d="M0.299,-0.656l-0.091,0l0,0.128l-0.139,0l0,0.07l0.139,0l0,0.287c0,0.033 0.004,0.06 0.013,0.083c0.009,0.023 0.02,0.042 0.035,0.056c0.015,0.015 0.033,0.025 0.053,0.032c0.02,0.007 0.042,0.01 0.066,0.01c0.014,0 0.028,-0.001 0.042,-0.002c0.014,-0.001 0.028,-0.003 0.04,-0.006c0.013,-0.002 0.024,-0.005 0.035,-0.009c0.011,-0.003 0.02,-0.007 0.027,-0.012l-0.013,-0.064c-0.006,0.001 -0.013,0.003 -0.021,0.005c-0.009,0.002 -0.018,0.003 -0.028,0.005c-0.01,0.002 -0.02,0.003 -0.031,0.004c-0.01,0.001 -0.021,0.002 -0.03,0.002c-0.013,0 -0.026,-0.002 -0.038,-0.005c-0.012,-0.003 -0.022,-0.009 -0.031,-0.017c-0.009,-0.008 -0.016,-0.018 -0.021,-0.032c-0.005,-0.013 -0.008,-0.03 -0.008,-0.051l0,-0.287l0.201,0l0,-0.07l-0.201,0l0,-0.128Z" style="fill:#fff;fill-rule:nonzero;"/></g></g></g><circle id="output" cx="120" cy="1322.835" r="57.874" style="fill:none;stroke:#fff;stroke-width:1.67px;"/><circle id="light" cx="120" cy="94.488" r="26.575" style="fill:none;stroke:#fff;stroke-width:1.67px;"/><g id="Knobs"><circle id="Knob" cx="120" cy="892.03" r="57.874" style="fill:none;stroke:#fff;stroke-width:1.67px;"/><circle id="Knob1" serif:id="Knob" cx="120" cy="745.114" r="57.874" style="fill:none;stroke:#fff;stroke-width:1.67px;"/></g></g></svg>